<?xml version="1.0" encoding="UTF-8" standalone="no" ?>
<!DOCTYPE svg PUBLIC "-//W3C//DTD SVG 1.1//EN" "http://www.w3.org/Graphics/SVG/1.1/DTD/svg11.dtd">
<svg xmlns="http://www.w3.org/2000/svg" xmlns:xlink="http://www.w3.org/1999/xlink" version="1.1" width="1080" height="1080" viewBox="0 0 1080 1080" xml:space="preserve">
<desc>Created with Fabric.js 5.2.4</desc>
<defs>
</defs>
<g transform="matrix(1 0 0 1 540 540)" id="6b1349fd-de38-4c63-8ab3-5e322c926983"  >
<rect style="stroke: none; stroke-width: 1; stroke-dasharray: none; stroke-linecap: butt; stroke-dashoffset: 0; stroke-linejoin: miter; stroke-miterlimit: 4; fill: rgb(255,255,255); fill-rule: nonzero; opacity: 1; visibility: hidden;" vector-effect="non-scaling-stroke"  x="-540" y="-540" rx="0" ry="0" width="1080" height="1080" />
</g>
<g transform="matrix(1 0 0 1 540 540)" id="c506a458-fa44-4974-a4a8-0ba091d97e2e"  >
</g>
<g transform="matrix(6.24 0 0 6.24 540 540)"  >
<g style=""   >
		<g transform="matrix(1 0 0 1 17.02 3.19)"  >
<path style="stroke: none; stroke-width: 1; stroke-dasharray: none; stroke-linecap: butt; stroke-dashoffset: 0; stroke-linejoin: miter; stroke-miterlimit: 4; fill: rgb(5,25,45); fill-rule: nonzero; opacity: 1;" vector-effect="non-scaling-stroke"  transform=" translate(-103.52, -21.19)" d="M 42.56 27.099 C 40.50792663221074 27.126196483672217 38.59998693757113 26.047008860037977 37.56601900675109 24.274255331329083 C 36.53205107593106 22.501501802620187 36.53205107593106 20.309498197379813 37.56601900675109 18.53674466867092 C 38.59998693757113 16.763991139962023 40.50792663221073 15.684803516327785 42.56 15.712 C 45.675007453920756 15.753283733169177 48.178543058636066 18.290218987859003 48.178543058636066 21.405499999999996 C 48.178543058636066 24.520781012140993 45.67500745392075 27.057716266830823 42.56 27.099 z M 48.264 6.477 L 48.264 15.33 C 44.95832218897216 12.224177029814337 39.77593830368602 12.331852102573796 36.60211780820505 15.57230046274244 C 33.428297312724084 18.812748822911082 33.428297312724084 23.99625117708893 36.60211780820506 27.236699537257564 C 39.77593830368603 30.477147897426207 44.95832218897217 30.584822970185662 48.26400000000001 27.479 L 48.264 29.314 L 50.896 29.314 L 50.896 6.477 L 48.264 6.477 z M 121.54400000000001 27.099 C 119.49192663221075 27.126196483672217 117.58398693757114 26.047008860037977 116.5500190067511 24.274255331329083 C 115.51605107593107 22.501501802620187 115.51605107593107 20.309498197379813 116.5500190067511 18.53674466867092 C 117.58398693757114 16.763991139962023 119.49192663221075 15.684803516327785 121.54400000000001 15.712 C 124.65900745392076 15.753283733169177 127.16254305863607 18.290218987859003 127.16254305863607 21.405499999999996 C 127.16254305863607 24.520781012140993 124.65900745392076 27.057716266830823 121.54400000000001 27.099 z M 129.877 21.405 L 129.877 13.159 L 127.24600000000001 13.159 L 127.24600000000001 15.33 C 123.94058575342791 12.225063126484741 118.75918367419418 12.333046034310968 115.58600000000001 15.573 C 112.4120269354156 18.812842027977606 112.4120269354156 23.9961579720224 115.58600000000001 27.236000000000004 C 118.75918367419418 30.475953965689033 123.94058575342791 30.58393687351526 127.24600000000001 27.479 L 127.24600000000001 29.314 L 129.87800000000001 29.314 L 129.87800000000001 21.405 L 129.877 21.405 z M 150.864 13.771 C 151.0992853847453 13.38381719150609 151.51993432418993 13.147889652881599 151.973 13.149000000000001 L 152.48000000000002 13.149000000000001 C 153.555 13.149000000000001 154.42700000000002 14.021 154.42700000000002 15.096 L 154.42700000000002 29.314 L 151.741 29.314 L 151.741 17.269 C 150.502 19.269 146.067 26.519 144.738 28.692999999999998 C 144.50195070494075 29.078764402012936 144.0822537379492 29.313991673223903 143.63 29.313999999999997 L 143.082 29.313999999999997 C 142.36513439471963 29.313999999999997 141.784 28.732865605280367 141.784 28.016 L 141.784 17.238 C 139.33254419539696 21.213604073809414 136.89586072672515 25.1982982166968 134.47400000000027 29.192000000000064 L 134.39999999999998 29.314 L 131.82599999999996 29.314 L 131.82599999999996 13.154 L 134.50999999999996 13.154 L 134.50999999999996 13.188 L 134.44799999999995 24.335 L 140.88599999999994 13.775 C 141.122130934498 13.388693922220751 141.542241566295 13.153068301862115 141.99499999999995 13.153 L 142.50599999999994 13.153 C 143.57899999999995 13.153 144.44999999999993 14.022 144.45299999999995 15.095 C 144.45299999999995 18.066000000000003 144.46699999999996 23.477 144.46699999999996 24.265 L 150.86399999999995 13.771 z M 112.944 26.312 C 110.80042995289064 29.25456222529107 106.99430217546374 30.46424288524132 103.54522243961533 29.29916178405812 C 100.09614270376693 28.134080682874924 97.80319896247303 24.86416555302531 97.88307196986237 21.22449725780046 C 97.9629449772517 17.584828962575614 100.39712963548341 14.418651297505688 103.894 13.406000000000002 C 107.39267045644141 12.39465915811809 111.14277772419909 13.772803330059714 113.15400000000001 16.808999999999997 L 110.63000000000001 18.121000000000002 C 109.26885039072873 16.202203372303416 106.84319305650718 15.35393195088614 104.58289410826956 16.006279574377654 C 102.32259516003194 16.65862719786917 100.72195530850404 18.668933138057586 100.59253712743937 21.017924345297207 C 100.4631189463747 23.366915552536828 101.83322466496777 25.54089536553755 104.00817801220458 26.437604178153187 C 106.18313135944139 27.334312990768822 108.68729570054278 26.757651165942242 110.251 25 L 112.944 26.312 z M 164.486 27.112000000000002 C 161.47554897919838 27.110033223514893 158.98681679147344 24.765016556489567 158.80599999999998 21.76 L 158.80599999999998 21.078000000000003 C 158.99114485603948 17.982355875250008 161.61915287994867 15.603903435480971 164.7178636490072 15.727526793054823 C 167.8165744180657 15.851150150628674 170.24675456838207 18.431399483344936 170.18470148225828 21.53195436583284 C 170.12264839613445 24.63250924832074 167.59117573748213 27.113458332939388 164.48999999999998 27.113000000000003 L 164.486 27.112000000000002 z M 164.48999999999998 13.086000000000002 C 162.3794471627193 13.082834922965914 160.34695721419973 13.883816183466223 158.80599999999998 15.326000000000004 L 158.80599999999998 13.158000000000001 L 156.17399999999998 13.158000000000001 L 156.17399999999998 35.91 L 158.80599999999998 35.91 L 158.80599999999998 27.509999999999998 C 161.53742285155775 30.05914224737453 165.63190231592554 30.478114140254334 168.82299999999998 28.534999999999997 C 172.01616729738828 26.594034625108286 173.52629089678484 22.764320253328833 172.51722661055578 19.16634120365448 C 171.50816232432672 15.568362153980125 168.22679774651033 13.08243537261256 164.48999999999998 13.084999999999997 L 164.48999999999998 13.085999999999997 z M 75.277 15.68 L 75.277 25.618000000000002 C 75.277 26.207 75.755 26.685000000000002 76.344 26.685000000000002 L 79.40799999999999 26.685000000000002 L 79.40799999999999 29.314000000000004 L 76.34599999999999 29.314000000000004 C 74.3056694263649 29.311795426948116 72.65220457305188 27.658330573635084 72.64999999999999 25.618000000000002 L 72.63999999999999 15.680000000000001 L 69.80199999999999 15.680000000000001 L 69.80199999999999 13.120000000000001 L 72.63999999999999 13.120000000000001 L 72.63999999999999 8.702 L 75.27499999999999 8.702 L 75.27499999999999 13.129 L 79.94699999999999 13.129 L 79.94699999999999 15.678999999999998 L 75.27699999999999 15.678999999999998 L 75.27699999999999 15.679999999999998 z M 88.034 27.098 C 84.88901449208855 27.098 82.3395 24.54848550791145 82.3395 21.4035 C 82.3395 18.258514492088548 84.88901449208855 15.709 88.034 15.709 C 91.17898550791146 15.709 93.7285 18.258514492088544 93.72850000000001 21.403499999999998 C 93.72850000000001 24.54848550791145 91.17898550791146 27.098 88.034 27.098 z M 93.736 13.156999999999998 L 93.736 15.329999999999998 C 90.43032218897217 12.224177029814335 85.24793830368603 12.331852102573794 82.07411780820505 15.572300462742438 C 78.90029731272409 18.812748822911082 78.90029731272409 23.99625117708893 82.07411780820506 27.236699537257564 C 85.24793830368603 30.477147897426207 90.43032218897217 30.584822970185662 93.736 27.478999999999996 L 93.736 29.314 L 96.36800000000001 29.314 L 96.36800000000001 13.154 L 93.736 13.157 z M 60.285 27.099 C 58.232926632210734 27.126196483672217 56.324986937571126 26.047008860037977 55.291019006751085 24.274255331329083 C 54.25705107593105 22.501501802620187 54.25705107593105 20.309498197379813 55.291019006751085 18.53674466867092 C 56.324986937571126 16.763991139962023 58.23292663221073 15.684803516327785 60.285 15.712 C 63.40000745392075 15.753283733169177 65.90354305863606 18.290218987859003 65.90354305863606 21.405499999999996 C 65.90354305863606 24.520781012140993 63.40000745392074 27.057716266830823 60.285 27.099 z M 65.987 13.158 L 65.987 15.328999999999999 C 62.68132218897216 12.223177029814336 57.49893830368601 12.330852102573795 54.32511780820504 15.571300462742439 C 51.151297312724076 18.81174882291108 51.15129731272408 23.995251177088925 54.32511780820505 27.235699537257567 C 57.49893830368602 30.476147897426202 62.68132218897216 30.583822970185665 65.987 27.477999999999994 L 65.987 29.313 L 68.61699999999999 29.313 L 68.61699999999999 13.152999999999999 L 65.987 13.158 z" stroke-linecap="round" />
</g>
		<g transform="matrix(1 0 0 1 -73.3 -0.8)"  >
<path style="stroke: none; stroke-width: 1; stroke-dasharray: none; stroke-linecap: butt; stroke-dashoffset: 0; stroke-linejoin: miter; stroke-miterlimit: 4; fill: rgb(5,25,45); fill-rule: nonzero; opacity: 1;" vector-effect="non-scaling-stroke"  transform=" translate(-13.2, -17.2)" d="M 11.699 8.514 L 11.699 16.847 L 2.858 21.89 L 2.858 3.44 L 11.699 8.514 z M 14.56 26.021 L 14.56 18.511000000000003 L 26.4 11.754000000000003 L 23.52 10.104000000000003 L 14.559999999999999 15.216000000000003 L 14.559999999999999 7.68 C 14.55819690648457 7.167873587002422 14.284902224751345 6.695127076260549 13.841999999999999 6.438 L 3.056 0.256 C 3.027 0.238 2.998 0.224 2.97 0.21 C 2.3294272793154276 -0.10294531317247799 1.5727068063272638 -0.06315468870949412 0.9684871003461435 0.31524553119787413 C 0.3642673943650232 0.6936457511052424 -0.001892632274631545 1.3570732173182654 0 2.07 L 0 23.254 C -0.002128906168474364 23.967427562526535 0.3637980939181187 24.631520276583462 0.9680423010240591 25.010825374615294 C 1.5722865081299995 25.39013047264713 2.329419023218713 25.43102126441381 2.9710000000000005 25.119 L 3.053 25.076999999999998 L 11.693000000000001 20.144 L 11.693000000000001 26.863999999999997 C 11.695000000000002 27.377 11.97 27.850999999999996 12.415000000000001 28.106999999999996 L 23.502 34.4 L 26.381999999999998 32.748999999999995 L 14.559999999999999 26.020999999999994 z" stroke-linecap="round" />
</g>
</g>
</g>
<g transform="matrix(NaN NaN NaN NaN 0 0)"  >
<g style=""   >
</g>
</g>
</svg>